<svg width="400" height="300" viewBox="0 0 400 300" xmlns="http://www.w3.org/2000/svg" fill="none" opacity="0.15">
  <!-- Abstract candlestick chart background illustration -->
  <!-- Grid lines -->
  <line x1="0" y1="60" x2="400" y2="60" stroke="#888" stroke-width="0.5" stroke-dasharray="4,4"/>
  <line x1="0" y1="120" x2="400" y2="120" stroke="#888" stroke-width="0.5" stroke-dasharray="4,4"/>
  <line x1="0" y1="180" x2="400" y2="180" stroke="#888" stroke-width="0.5" stroke-dasharray="4,4"/>
  <line x1="0" y1="240" x2="400" y2="240" stroke="#888" stroke-width="0.5" stroke-dasharray="4,4"/>

  <!-- Line chart -->
  <polyline points="0,200 40,180 80,150 120,160 160,130 200,110 240,120 280,90 320,100 360,80 400,70"
    stroke="#888" stroke-width="1.5" fill="none"/>

  <!-- Candles -->
  <line x1="30" y1="140" x2="30" y2="160" stroke="#888" stroke-width="1.5"/>
  <rect x="25" y="150" width="10" height="20" rx="1" fill="#888"/>
  <line x1="30" y1="170" x2="30" y2="185" stroke="#888" stroke-width="1.5"/>

  <line x1="70" y1="120" x2="70" y2="135" stroke="#888" stroke-width="1.5"/>
  <rect x="65" y="130" width="10" height="15" rx="1" fill="none" stroke="#888" stroke-width="1.5"/>
  <line x1="70" y1="145" x2="70" y2="158" stroke="#888" stroke-width="1.5"/>

  <line x1="110" y1="115" x2="110" y2="130" stroke="#888" stroke-width="1.5"/>
  <rect x="105" y="128" width="10" height="18" rx="1" fill="#888"/>
  <line x1="110" y1="146" x2="110" y2="160" stroke="#888" stroke-width="1.5"/>

  <line x1="150" y1="100" x2="150" y2="112" stroke="#888" stroke-width="1.5"/>
  <rect x="145" y="110" width="10" height="12" rx="1" fill="none" stroke="#888" stroke-width="1.5"/>
  <line x1="150" y1="122" x2="150" y2="135" stroke="#888" stroke-width="1.5"/>

  <line x1="190" y1="85" x2="190" y2="98" stroke="#888" stroke-width="1.5"/>
  <rect x="185" y="95" width="10" height="22" rx="1" fill="#888"/>
  <line x1="190" y1="117" x2="190" y2="130" stroke="#888" stroke-width="1.5"/>

  <line x1="230" y1="80" x2="230" y2="92" stroke="#888" stroke-width="1.5"/>
  <rect x="225" y="90" width="10" height="14" rx="1" fill="none" stroke="#888" stroke-width="1.5"/>
  <line x1="230" y1="104" x2="230" y2="118" stroke="#888" stroke-width="1.5"/>

  <line x1="270" y1="65" x2="270" y2="78" stroke="#888" stroke-width="1.5"/>
  <rect x="265" y="75" width="10" height="20" rx="1" fill="#888"/>
  <line x1="270" y1="95" x2="270" y2="108" stroke="#888" stroke-width="1.5"/>

  <line x1="310" y1="72" x2="310" y2="84" stroke="#888" stroke-width="1.5"/>
  <rect x="305" y="82" width="10" height="10" rx="1" fill="none" stroke="#888" stroke-width="1.5"/>
  <line x1="310" y1="92" x2="310" y2="105" stroke="#888" stroke-width="1.5"/>

  <line x1="350" y1="58" x2="350" y2="68" stroke="#888" stroke-width="1.5"/>
  <rect x="345" y="65" width="10" height="18" rx="1" fill="#888"/>
  <line x1="350" y1="83" x2="350" y2="95" stroke="#888" stroke-width="1.5"/>

  <!-- Volume bars at bottom -->
  <rect x="20" y="255" width="18" height="30" rx="1" fill="#888" opacity="0.5"/>
  <rect x="60" y="260" width="18" height="25" rx="1" fill="#888" opacity="0.5"/>
  <rect x="100" y="250" width="18" height="35" rx="1" fill="#888" opacity="0.5"/>
  <rect x="140" y="258" width="18" height="27" rx="1" fill="#888" opacity="0.5"/>
  <rect x="180" y="245" width="18" height="40" rx="1" fill="#888" opacity="0.5"/>
  <rect x="220" y="262" width="18" height="23" rx="1" fill="#888" opacity="0.5"/>
  <rect x="260" y="252" width="18" height="33" rx="1" fill="#888" opacity="0.5"/>
  <rect x="300" y="258" width="18" height="27" rx="1" fill="#888" opacity="0.5"/>
  <rect x="340" y="248" width="18" height="37" rx="1" fill="#888" opacity="0.5"/>
</svg>
