<?xml version="1.0" encoding="UTF-8"?>
<svg width="382px" height="282px" viewBox="0 0 382 282" version="1.1" xmlns="http://www.w3.org/2000/svg" xmlns:xlink="http://www.w3.org/1999/xlink">
    <title>move-selection-left</title>
    <g id="Page-1" stroke="none" stroke-width="1" fill="none" fill-rule="evenodd" stroke-linejoin="round">
        <g id="move-selection-left" transform="translate(1.029833, 1.080080)" stroke="#E0E0E0" stroke-width="0.727272727">
            <polygon id="Path" points="190.453755 191.895787 190.453755 252.079516 166.651392 238.327534 166.651392 178.143806"></polygon>
            <polygon id="Path" points="380 137.429814 356.347795 151.091521 332.54513 137.339539 356.197335 123.677832"></polygon>
            <polygon id="Path" points="332.391662 109.92555 308.712374 123.587256 284.908807 109.834973 308.592006 96.2036595"></polygon>
            <polygon id="Path" points="320.839395 171.553687 308.712374 178.565092 304.198594 181.152992 297.18719 185.215394 273.383322 171.493504 284.908807 164.843202 297.033721 157.831797 301.547501 160.449789 308.712374 164.572074"></polygon>
            <polygon id="Path" points="261.711891 205.708254 238.059987 219.369659 214.257623 205.617677 237.909528 191.955971"></polygon>
            <polygon id="Path" points="214.106261 178.234081 190.453755 191.895787 166.651392 178.143806 190.302995 164.482099"></polygon>
            <polygon id="Path" points="284.759551 82.4516776 232.640442 112.543542 142.846019 164.391824 52.1193494 112.03198 2.93098879e-14 81.9401159 141.943865 0"></polygon>
            <polygon id="Path" points="142.846019 164.391824 142.846019 224.575552 1.82076576e-14 142.123844 1.82076576e-14 81.9401159 52.1193494 112.03198"></polygon>
            <polygon id="Path" points="284.761958 82.4516776 284.761958 142.635406 214.106261 183.439974 214.106261 178.234081 190.302995 164.482099 166.651392 178.143806 166.651392 210.82357 142.848125 224.575552 142.848125 164.391824 232.642549 112.543542"></polygon>
            <polygon id="Path" points="332.394671 109.92555 332.394671 170.109278 320.839395 176.789672 320.839395 171.553687 308.712374 164.572375 308.712374 123.587256"></polygon>
            <polygon id="Path" points="308.712374 123.587256 308.712374 164.572375 301.547501 160.449789 297.033721 157.831797 284.908807 164.843202 284.908807 109.835274"></polygon>
            <polygon id="Path" points="214.106863 178.234081 214.106863 238.417809 190.454357 252.079516 190.454357 191.895787"></polygon>
            <polygon id="Path" points="238.059987 219.36996 238.059987 279.553689 214.257623 265.801707 214.257623 205.617978"></polygon>
            <polygon id="Path" points="261.706776 205.708254 261.706776 265.891982 238.054871 279.553689 238.054871 219.36996"></polygon>
            <polygon id="Path" points="297.18719 185.215394 297.18719 245.399122 273.383322 231.677232 273.383322 171.493504"></polygon>
            <polygon id="Path" points="320.839395 171.553687 320.839395 231.737416 297.18719 245.399423 297.18719 185.215695 304.198594 181.152992 308.712374 178.565092"></polygon>
            <polygon id="Path" points="380 137.429814 380 197.613543 356.347795 211.274948 356.347795 151.09122"></polygon>
            <polygon id="Path" points="356.347795 151.09122 356.347795 211.274948 332.54513 197.522966 332.54513 137.339238"></polygon>
        </g>
    </g>
</svg>