<?xml version="1.0" encoding="UTF-8"?>
<svg width="382px" height="286px" viewBox="0 0 382 286" version="1.1" xmlns="http://www.w3.org/2000/svg" xmlns:xlink="http://www.w3.org/1999/xlink">
    <title>select-all-1</title>
    <g id="Page-1" stroke="none" stroke-width="1" fill="none" fill-rule="evenodd" stroke-linejoin="round">
        <g id="select-all-1" transform="translate(1.024194, 1.024194)" stroke="#E0E0E0">
            <path d="M84.2942308,124.775962 L84.1660256,124.840064 L84.2942308,124.904167 L84.4224359,125.000321 L84.4224359,124.679808 L84.2942308,124.775962 Z M295.544231,149.551603 L295.416026,149.615705 L295.544231,149.679808 L295.672436,149.775962 L295.672436,149.455449 L295.544231,149.551603 Z" id="Shape"></path>
            <polygon id="Path" points="316.858974 146.474679 316.858974 210.577244 295.801282 198.429808 295.801282 158.622115 295.673077 158.558013 295.673077 134.263141 308.846154 141.859295 316.602564 146.314423"></polygon>
            <polygon id="Path" points="274.775962 170.769872 274.775962 234.872436 253.718269 222.725 253.718269 182.949359 253.590064 182.885256 253.590064 158.558333"></polygon>
            <polygon id="Path" points="295.544551 149.551282 295.416346 149.615385 295.544551 149.679487 295.544551 158.461538 274.615064 146.410256 261.217628 154.166667 253.589423 158.557692 253.589423 182.884615 245.704808 178.301282 232.531731 170.705128 211.50609 182.852564 211.50609 207.179487 203.621474 202.596154 190.448397 195 190.320192 195.064103 190.320192 170.641026 218.974038 154.102564 240.031731 141.923077 261.057372 129.775641 274.230449 122.179487 282.115064 117.628205 295.288141 110.032051 295.416346 109.935897 295.544551 109.871795"></polygon>
            <polygon id="Path" points="211.634295 207.24391 211.50609 207.308013 190.576603 219.391346 190.320192 219.23109 169.422756 207.147756 177.01891 202.756731 190.320192 195.064423 190.448397 195.000321 203.621474 202.596474 211.50609 207.179808"></polygon>
            <polygon id="Path" points="211.634615 207.244231 211.634615 271.346795 190.576923 283.49391 190.576923 219.391346 211.50641 207.308333"></polygon>
            <polygon id="Path" points="232.660897 195.096154 232.660897 259.199038 211.635256 247.019231 211.635256 207.24391 211.507051 207.179487 211.507051 182.852564 224.648077 190.448718"></polygon>
            <polygon id="Path" points="63.525641 146.025641 63.525641 210.128205 42.3397436 197.916667 42.3397436 133.814103 55.4807692 141.410256 63.2692308 145.865385"></polygon>
            <polygon id="Path" points="21.1858974 121.570833 21.1858974 185.673397 0 173.461859 0 109.359295"></polygon>
            <path d="M84.4230769,133.782051 L84.2948718,133.717949 L84.2948718,134.038462 L84.4230769,133.974359 L84.5833333,133.878205 L84.4230769,133.782051 Z M189.391026,0 L168.365385,12.1474359 L189.519231,24.3589744 L210.576923,12.2115385 L189.391026,0 Z M231.762821,24.4551282 L210.705128,36.6025641 L231.891026,48.8141026 L252.916667,36.6666667 L231.762821,24.4551282 Z M274.102564,48.9102564 L253.044872,61.0576923 L274.230769,73.2692308 L295.288462,61.1217949 L274.102564,48.9102564 Z M42.0833333,109.358974 L21.025641,97.2115385 L0,109.358974 L21.1858974,121.570513 L42.0833333,109.487179 L42.2115385,109.423077 L42.0833333,109.358974 Z M126.25,60.7692308 L105.224359,48.5897436 L84.1666667,60.7371795 L105.352564,72.9807692 L126.25,60.8974359 L126.378205,60.8333333 L126.25,60.7692308 Z M295.673077,158.557692 L295.544872,158.461538 L295.544872,158.782051 L295.673077,158.685897 L295.801282,158.621795 L295.673077,158.557692 Z" id="Shape"></path>
            <polygon id="Path" points="168.49391 36.5387821 168.365705 36.6028846 147.436218 48.6862179 126.250321 36.4426282 147.308013 24.2951923 168.365705 36.4746795"></polygon>
            <polygon id="Path" points="380 110.032051 358.942308 122.179487 337.75641 109.967949 358.814103 97.8205128"></polygon>
            <polygon id="Path" points="337.628205 85.5766026 316.602564 97.7240385 295.416346 85.5125 316.442308 73.3650641"></polygon>
            <path d="M295.416026,109.807692 L295.287821,109.711538 L274.230128,97.5641026 L253.044231,85.3525641 L252.916026,85.2564103 L231.890385,73.1410256 L210.704487,60.8974359 L210.576282,60.8333333 L189.646795,48.75 L189.51859,48.8141026 L168.492949,60.9615385 L168.364744,61.025641 L147.435256,73.1089744 L126.377564,85.2564103 L126.249359,85.3525641 L105.351923,97.4038462 L84.4224359,109.487179 L97.5955128,117.083333 L105.351923,121.570513 L118.78141,129.326923 L139.935256,141.538462 L161.121154,153.782051 L190.319872,170.641026 L218.973718,154.102564 L240.03141,141.923077 L261.057051,129.775641 L274.230128,122.179487 L282.114744,117.628205 L295.287821,110.032051 L295.416026,109.935897 L295.544231,109.871795 L295.416026,109.807692 Z M253.044231,109.967949 L218.845513,129.711538 L197.787821,141.858974 L190.191667,146.25 L182.178846,141.634615 L160.992949,129.391026 L126.666026,109.583333 L134.294231,105.192308 L147.435256,97.5961538 L155.319872,93.0448718 L168.492949,85.4166667 L176.377564,80.8653846 L189.51859,73.3012821 L189.775,73.1410256 L202.916026,80.7371795 L210.704487,85.224359 L224.133974,92.9487179 L231.890385,97.4358974 L245.287821,105.160256 L253.044231,109.647436 L253.332692,109.807692 L253.044231,109.967949 Z" id="Shape"></path>
            <polygon id="Path" points="295.545192 158.461218 295.545192 158.781731 282.372115 166.377885 274.775962 170.76891 253.590064 158.557372 261.218269 154.166346 274.615705 146.409936"></polygon>
            <polygon id="Path" points="189.775641 73.1413462 189.775641 137.24391 182.179487 141.634936 160.99359 129.391346 126.666667 109.583654 134.294872 105.192628 147.435897 97.5964744 155.320513 93.0451923 168.49359 85.4169872 176.378205 80.8657051 189.519231 73.3016026"></polygon>
            <polygon id="Path" points="253.044872 109.647756 253.044872 109.968269 218.846154 129.711859 197.788462 141.859295 189.775641 137.24391 189.775641 73.1413462 202.916667 80.7375 210.705128 85.2246795 224.134615 92.9490385 231.891026 97.4362179 245.288462 105.160577"></polygon>
            <polygon id="Path" points="253.71859 182.948718 253.590385 183.012821 232.660897 195.096154 224.648077 190.448718 211.507051 182.852564 232.532692 170.705128 245.705769 178.301282 253.590385 182.884615"></polygon>
            <polygon id="Path" points="169.263141 182.788462 155.865705 190.544872 148.2375 194.935897 127.051603 182.692308 134.647756 178.301282 148.109295 170.544872"></polygon>
            <polygon id="Path" points="126.923718 158.333654 105.866026 170.48109 97.8532051 165.833654 84.7121795 158.2375 105.737821 146.090064 118.878846 153.686218"></polygon>
            <polygon id="Path" points="84.1663462 85.0641026 84.1663462 85.1923077 63.2689103 97.275641 42.0830128 85.0320513 63.1407051 72.8846154"></polygon>
            <polygon id="Path" points="380 110.032372 380 174.134936 358.942308 186.282372 358.942308 122.179808"></polygon>
            <polygon id="Path" points="358.942308 122.179808 358.942308 186.282372 337.884615 174.134936 337.884615 134.327244 337.75641 134.263141 337.75641 109.968269"></polygon>
            <polygon id="Path" points="337.884615 134.327244 337.75641 134.391346 337.628205 134.4875 324.455128 142.083654 316.858974 146.474679 316.602564 146.314423 308.846154 141.859295 295.673077 134.263141 316.602564 122.179808 316.730769 122.115705 337.628205 134.166987 337.75641 134.263141"></polygon>
            <line x1="295.673077" y1="158.685897" x2="295.673077" y2="158.557692" id="Path"></line>
            <polygon id="Path" points="337.628205 85.5769231 337.628205 134.166667 316.730769 122.115064 316.602564 122.179167 316.602564 97.724359"></polygon>
            <polygon id="Path" points="337.884615 174.00609 337.75641 174.070192 337.884615 174.134295 337.884615 198.429167 316.858974 210.576603 316.858974 146.474038 324.455128 142.083013 337.628205 134.486859 337.75641 134.390705 337.884615 134.326603"></polygon>
            <polygon id="Path" points="316.602564 97.7240385 316.602564 122.179167 295.672756 134.2625 295.672756 149.454808 295.544551 149.550962 295.544551 109.871474 295.416346 109.807372 295.416346 85.5125"></polygon>
            <polygon id="Path" points="295.288782 61.1221154 295.288782 109.711859 274.23109 97.5644231 274.23109 73.2695513"></polygon>
            <polygon id="Path" points="274.23141 73.2695513 274.23141 97.5644231 253.045513 85.3525641 253.045513 61.0576923"></polygon>
            <polygon id="Path" points="252.916987 36.6663462 252.916987 85.2560897 231.891346 73.1407051 231.891346 48.8137821"></polygon>
            <polygon id="Path" points="231.891667 48.8137821 231.891667 73.1407051 210.705769 60.8971154 210.705769 36.6022436"></polygon>
            <polygon id="Path" points="210.576603 12.2117308 210.576603 60.8336538 189.647115 48.7503205 189.51891 48.8144231 189.51891 24.3592949"></polygon>
            <polygon id="Path" points="189.51859 24.3589744 189.51859 48.8141026 168.492949 60.9615385 168.492949 36.5384615 168.364744 36.474359 168.364744 12.1475641"></polygon>
            <polygon id="Path" points="168.49359 36.538141 168.49359 60.9612179 168.365385 61.0253205 147.435897 73.1086538 147.435897 48.6855769 168.365385 36.6022436"></polygon>
            <polygon id="Path" points="253.717628 182.949038 253.717628 247.051603 232.659615 259.199038 232.659615 195.096474 253.589423 183.013141"></polygon>
            <polygon id="Path" points="190.576603 219.390705 190.576603 283.493269 169.422756 271.249679 169.422756 207.147115 190.320192 219.230449"></polygon>
            <polygon id="Path" points="169.262821 182.788462 169.262821 246.891026 148.237179 259.038462 148.237179 194.935897 155.865385 190.544872"></polygon>
            <polygon id="Path" points="148.2375 194.935897 148.2375 259.038462 127.051603 246.794872 127.051603 182.692308"></polygon>
            <polygon id="Path" points="126.922436 173.525321 126.666026 173.685577 126.922436 173.845833 126.922436 222.435577 105.864744 234.583013 105.864744 170.480449 126.922436 158.333013"></polygon>
            <polygon id="Path" points="105.866026 170.48109 105.866026 234.583654 84.7121795 222.340064 84.7121795 158.2375 97.8532051 165.833654"></polygon>
            <line x1="84.5836538" y1="173.685577" x2="84.5836538" y2="173.493269" id="Path"></line>
            <polygon id="Path" points="42.2112179 109.422756 42.2112179 173.525321 21.1854487 185.672756 21.1854487 121.570192 42.0830128 109.486859"></polygon>
            <polygon id="Path" points="84.5826923 173.685897 84.5826923 197.98109 63.525 210.128205 63.525 146.025962 71.1532051 141.634615 84.2942308 134.038462 84.4224359 133.974359 84.4224359 173.589744"></polygon>
            <line x1="84.2942308" y1="124.903526" x2="84.2942308" y2="124.775321" id="Path"></line>
            <polygon id="Path" points="84.2948718 133.717949 84.2948718 134.038462 71.1538462 141.634295 63.525641 146.025641 63.2692308 145.865064 55.4807692 141.409936 42.3397436 133.814103 63.2692308 121.698718 63.3974359 121.634615"></polygon>
            <polygon id="Path" points="63.2689103 97.275641 63.2689103 121.698718 42.3394231 133.814103 42.3394231 149.294872 42.2112179 149.198718 42.2112179 109.423077 42.0830128 109.358974 42.0830128 85.0320513"></polygon>
            <line x1="42.0830128" y1="109.4875" x2="42.0830128" y2="109.359295" id="Path"></line>
            <polygon id="Path" points="84.2955128 124.904167 84.2955128 133.718269 63.3980769 121.634936 63.2698718 121.699038 63.2698718 97.2759615 84.1673077 85.1926282 84.1673077 124.840064"></polygon>
            <polygon id="Path" points="105.351923 72.9807692 105.351923 97.4035256 84.4224359 109.487179 84.4224359 124.679487 84.2942308 124.775641 84.2942308 85.1278846 84.1660256 85.0641026 84.1660256 60.7371795"></polygon>
            <polygon id="Path" points="126.250321 60.8974359 126.250321 85.3525641 105.352885 97.4038462 105.352885 72.9807692"></polygon>
            <polygon id="Path" points="147.436218 48.6862179 147.436218 73.1092949 126.378526 85.2567308 126.378526 60.8336538 126.250321 60.7695513 126.250321 36.4426282"></polygon>
            <line x1="126.250321" y1="60.8974359" x2="126.250321" y2="60.7692308" id="Path"></line>
            <line x1="84.4224359" y1="133.974359" x2="84.4224359" y2="133.782051" id="Path"></line>
            <polygon id="Path" points="190.319872 170.640705 190.319872 195.063782 177.01859 202.75609 169.422436 207.147115 169.422436 222.659936 169.262179 222.595833 169.262179 182.788141 148.108333 170.544551 134.646795 178.300962 127.050641 182.691987 127.050641 198.204808 126.922436 198.140705 126.922436 158.333013 118.877564 153.685577 105.736538 146.089423 84.7108974 158.236859 84.7108974 173.429167 84.5826923 173.493269 84.5826923 133.877885 84.4224359 133.781731 84.4224359 109.486859 97.5955128 117.083013 105.351923 121.570192 118.78141 129.326603 139.935256 141.538141 161.121154 153.781731"></polygon>
            <polygon id="Path" points="295.801282 198.429487 295.801282 222.724359 274.775641 234.871795 274.775641 170.769231 282.371795 166.378205 295.544872 158.782051 295.673077 158.685897 295.673077 198.365385"></polygon>
            <line x1="295.544872" y1="149.679167" x2="295.544872" y2="149.550962" id="Path"></line>
        </g>
    </g>
</svg>